<svg width="72" height="29" viewBox="0 0 72 29" fill="none" xmlns="http://www.w3.org/2000/svg">
<g clip-path="url(#clip0_1197_16050)">
<path d="M53.6471 2.20312C54.5988 2.20312 55.4125 2.49648 56.088 3.08319C56.7635 3.66966 57.1013 4.37626 57.1013 5.20298C57.1013 6.02939 56.9946 7.6959 54.0505 8.39785L57.7019 12.7383C55.0477 12.7383 53.2344 12.536 52.3106 11.2413L50.7742 8.40618H49.0257L48.8898 12.628C48.0489 12.6762 47.341 12.4812 46.8806 11.8333L45.8508 10.257V2.20312H53.6471ZM48.9212 4.86959V6.34252H53.6471C53.7544 6.34252 53.8452 6.31033 53.9195 6.24586C53.9938 6.18147 54.0309 5.29612 54.0309 5.20298C54.0309 5.10952 53.9938 5.03064 53.9195 4.96625C53.8452 4.90178 53.7544 4.86959 53.6471 4.86959H48.9212Z" fill="#FF0000"/>
<path fill-rule="evenodd" clip-rule="evenodd" d="M40.0389 2.17188L46.7768 12.6374C44.0845 12.5945 42.2192 12.0765 40.8506 10.4852L37.7615 5.72601L40.0389 2.17188Z" fill="#FF0000"/>
<path fill-rule="evenodd" clip-rule="evenodd" d="M33.1585 12.7876L37.0224 6.75781L37.7872 7.88166C38.2945 8.69589 38.723 9.52006 38.6278 10.4225C38.2618 11.6897 37.4088 12.5126 35.9683 12.7996L33.1584 12.7876H33.1585Z" fill="white"/>
<path d="M63.511 12.9515C61.9178 12.9515 60.5581 12.4192 59.4318 11.3549C58.3055 10.2902 57.7424 9.00498 57.7424 7.49928C57.7424 5.99327 58.3055 4.70805 59.4318 3.64371C60.5581 2.57905 61.9178 2.04688 63.511 2.04688H65.1592C66.7525 2.04688 68.1122 2.57905 69.2385 3.64371C70.3649 4.70805 70.928 5.99327 70.928 7.49928C70.928 9.00498 70.3649 10.2902 69.2385 11.3549C68.1122 12.4192 66.7525 12.9515 65.1592 12.9515H63.511ZM63.511 5.16246C62.8298 5.16246 62.2473 5.39086 61.7639 5.84791C61.2803 6.30488 61.0388 6.85539 61.0388 7.49928C61.0388 8.14317 61.2803 8.69336 61.7639 9.15041C62.2473 9.60739 62.8298 9.83579 63.511 9.83579H65.1592C65.8405 9.83579 66.4228 9.60739 66.9062 9.15041C67.3897 8.69336 67.6316 8.14317 67.6316 7.49928C67.6316 6.85539 67.3897 6.30488 66.9062 5.84791C66.4228 5.39086 65.8405 5.16246 65.1592 5.16246H63.511Z" fill="#FF0000"/>
<path d="M40.2046 24.543C38.5309 24.5157 37.9021 23.6615 37.2928 22.3274L39.8131 22.0721C40.3874 21.9752 41.2096 21.7857 41.7489 21.4236C42.4534 20.9503 42.4597 20.1515 42.4815 19.5424C42.5048 18.8962 42.3242 18.2482 41.906 17.8158C41.4883 17.3835 40.9848 17.1674 40.3959 17.1674H36.8348V24.7621C35.7072 25.0375 34.0847 24.3814 33.9854 23.234V14.2188H40.3959C41.773 14.2188 42.9486 14.7223 43.9219 15.7297C44.8955 16.7373 45.3821 18.2677 45.3821 19.6927C45.3821 21.1181 44.8955 22.0199 43.9219 23.0274C42.9486 24.0349 41.5124 24.5645 40.2046 24.543Z" fill="white"/>
<path d="M51.333 24.5386C49.8305 24.5386 48.5484 24.0349 47.4861 23.0274C46.4239 22.0199 45.8928 20.8037 45.8928 19.3788C45.8928 17.9534 46.4239 16.7373 47.4861 15.7297C48.5484 14.7223 49.8305 14.2188 51.3329 14.2188H52.8876C54.39 14.2188 55.6722 14.7223 56.7344 15.7297C57.7965 16.7373 58.3276 17.9534 58.3276 19.3788C58.3276 20.8037 57.7965 22.0199 56.7344 23.0274C55.6722 24.0349 54.39 24.5386 52.8876 24.5386H51.333ZM51.333 17.1674C50.6904 17.1674 50.1413 17.3835 49.6854 17.8158C49.2296 18.2482 49.0016 18.7694 49.0016 19.3788C49.0016 19.9881 49.2296 20.5089 49.6854 20.9413C50.1413 21.3737 50.6904 21.5899 51.333 21.5899H52.8876C53.5297 21.5899 54.0792 21.3737 54.5351 20.9413C54.991 20.5089 55.2189 19.9881 55.2189 19.3788C55.2189 18.7694 54.991 18.2482 54.5351 17.8158C54.0792 17.3835 53.5297 17.1674 52.8876 17.1674H51.333Z" fill="white"/>
<path d="M70.0454 14.1719C69.7089 15.6169 68.1207 17.1061 66.5182 17.1203H61.9812C61.8816 17.1203 61.7971 17.1561 61.7282 17.2272C61.6593 17.2986 61.6251 17.3856 61.6251 17.4889C61.6251 17.5922 61.6593 17.6792 61.7282 17.7506C61.7971 17.8217 61.8816 17.8574 61.9812 17.8574H66.9672C67.8502 17.8574 68.6054 18.1819 69.2321 18.8304C69.8591 19.4792 70.1724 20.2606 70.1724 21.1747C70.1724 22.0888 69.8591 22.87 69.2321 23.5188C68.6054 24.1673 67.8502 24.4917 66.9672 24.4917H59.0633C59.268 22.5371 60.4733 21.567 61.859 21.5433H66.9672C67.0668 21.5433 67.1512 21.5076 67.2202 21.4361C67.289 21.3651 67.3233 21.2777 67.3233 21.1747C67.3233 21.0714 67.289 20.9841 67.2202 20.913C67.1512 20.8417 67.0668 20.8059 66.9672 20.8059H61.9812C61.0977 20.8059 60.3428 20.4818 59.716 19.8329C59.0893 19.1845 58.7759 18.403 58.7759 17.4889C58.7759 16.5749 59.0893 15.7934 59.716 15.1448C60.3428 14.4963 61.0977 14.1719 61.9812 14.1719H70.0454Z" fill="white"/>
<path d="M15.2662 27.0811C23.1452 27.0811 29.5324 21.2426 29.5324 14.0405C29.5324 6.83845 23.1452 1 15.2662 1C7.38719 1 1 6.83845 1 14.0405C1 21.2426 7.38719 27.0811 15.2662 27.0811Z" fill="white"/>
<path fill-rule="evenodd" clip-rule="evenodd" d="M5.4393 19.5858L11.0058 10.6875L12.1073 12.3462C12.838 13.5475 13.4555 14.7636 13.3181 16.0955C12.7907 17.9655 11.5622 19.1799 9.48666 19.6032L5.4393 19.5858Z" fill="black"/>
<path fill-rule="evenodd" clip-rule="evenodd" d="M15.3864 4.14062L25.093 19.5847C21.2145 19.5212 18.5272 18.7569 16.5556 16.4087L12.1055 9.38553L15.3864 4.14062Z" fill="#FF0000"/>
</g>
<defs>
<clipPath id="clip0_1197_16050">
<rect width="70" height="26.1325" fill="white" transform="translate(1 1)"/>
</clipPath>
</defs>
</svg>
