<svg width="72" height="65" viewBox="0 0 72 65" fill="none" xmlns="http://www.w3.org/2000/svg">
<path d="M28.2424 64.1494H0.536804V29.7945C0.536804 20.5592 2.38385 13.5405 6.07793 8.73816C10.1414 3.75115 16.9755 0.888232 26.5801 0.149414V16.4957C23.2554 16.4957 20.4849 17.881 18.2684 20.6516C17.1602 22.1292 16.6061 24.9921 16.6061 29.2403V34.5044H28.2424V64.1494ZM71.4632 64.1494H43.7576V29.7945C43.7576 20.5592 45.4199 13.8175 48.7446 9.56934C53.1775 4.02821 60.1963 0.888232 69.8009 0.149414V16.4957C64.075 16.4957 60.8427 19.3587 60.1039 25.0845C59.9192 25.8233 59.8269 27.2086 59.8269 29.2403V34.5044H71.4632V64.1494Z" fill="#146BB3"/>
</svg>
