<svg width="131" height="118" viewBox="0 0 131 118" fill="none" xmlns="http://www.w3.org/2000/svg">
<path d="M79.6965 117.209H130.398V54.3393C130.398 37.4388 127.018 24.5945 120.258 15.8063C112.821 6.68004 100.315 1.4409 82.7385 0.0888672V30.0026C88.8227 30.0026 93.8928 32.5377 97.9489 37.6078C99.977 40.3119 100.991 45.551 100.991 53.3252V62.9585H79.6965V117.209ZM0.602432 117.209H51.3037V54.3393C51.3037 37.4388 48.2617 25.1015 42.1775 17.3273C34.0653 7.18706 21.221 1.4409 3.64452 0.0888672V30.0026C14.1228 30.0026 20.0379 35.2418 21.39 45.7201C21.728 47.0721 21.897 49.6071 21.897 53.3252V62.9585H0.602432V117.209Z" fill="#146BB3"/>
</svg>
